<region> lovel=1 hivel=6 amp_velcurve_6=1 sample=../samples/toms/tm14bop/stx/snare_on/rms/tm14wbop_stxr_rms_001.wav
<region> lovel=7 hivel=12 amp_velcurve_12=1 sample=../samples/toms/tm14bop/stx/snare_on/rms/tm14wbop_stxr_rms_002.wav
<region> lovel=13 hivel=18 amp_velcurve_18=1 sample=../samples/toms/tm14bop/stx/snare_on/rms/tm14wbop_stxr_rms_003.wav
<region> lovel=19 hivel=24 amp_velcurve_24=1 sample=../samples/toms/tm14bop/stx/snare_on/rms/tm14wbop_stxr_rms_004.wav
<region> lovel=25 hivel=30 amp_velcurve_30=1 sample=../samples/toms/tm14bop/stx/snare_on/rms/tm14wbop_stxr_rms_005.wav
<region> lovel=31 hivel=36 amp_velcurve_36=1 sample=../samples/toms/tm14bop/stx/snare_on/rms/tm14wbop_stxr_rms_006.wav
<region> lovel=37 hivel=42 amp_velcurve_42=1 sample=../samples/toms/tm14bop/stx/snare_on/rms/tm14wbop_stxr_rms_007.wav
<region> lovel=43 hivel=48 amp_velcurve_48=1 sample=../samples/toms/tm14bop/stx/snare_on/rms/tm14wbop_stxr_rms_008.wav
<region> lovel=49 hivel=54 amp_velcurve_54=1 sample=../samples/toms/tm14bop/stx/snare_on/rms/tm14wbop_stxr_rms_009.wav
<region> lovel=55 hivel=60 amp_velcurve_60=1 sample=../samples/toms/tm14bop/stx/snare_on/rms/tm14wbop_stxr_rms_010.wav
<region> lovel=61 hivel=66 amp_velcurve_66=1 sample=../samples/toms/tm14bop/stx/snare_on/rms/tm14wbop_stxr_rms_011.wav
<region> lovel=67 hivel=72 amp_velcurve_72=1 sample=../samples/toms/tm14bop/stx/snare_on/rms/tm14wbop_stxr_rms_012.wav
<region> lovel=73 hivel=78 amp_velcurve_78=1 sample=../samples/toms/tm14bop/stx/snare_on/rms/tm14wbop_stxr_rms_013.wav
<region> lovel=79 hivel=84 amp_velcurve_84=1 sample=../samples/toms/tm14bop/stx/snare_on/rms/tm14wbop_stxr_rms_014.wav
<region> lovel=85 hivel=90 amp_velcurve_90=1 sample=../samples/toms/tm14bop/stx/snare_on/rms/tm14wbop_stxr_rms_015.wav
<region> lovel=91 hivel=96 amp_velcurve_96=1 sample=../samples/toms/tm14bop/stx/snare_on/rms/tm14wbop_stxr_rms_016.wav
<region> lovel=97 hivel=102 amp_velcurve_102=1 sample=../samples/toms/tm14bop/stx/snare_on/rms/tm14wbop_stxr_rms_017.wav
<region> lovel=103 hivel=108 amp_velcurve_108=1 sample=../samples/toms/tm14bop/stx/snare_on/rms/tm14wbop_stxr_rms_018.wav
<region> lovel=109 hivel=114 amp_velcurve_114=1 sample=../samples/toms/tm14bop/stx/snare_on/rms/tm14wbop_stxr_rms_019.wav
<region> lovel=115 hivel=120 amp_velcurve_120=1 sample=../samples/toms/tm14bop/stx/snare_on/rms/tm14wbop_stxr_rms_020.wav
<region> lovel=121 hivel=127 amp_velcurve_127=1 sample=../samples/toms/tm14bop/stx/snare_on/rms/tm14wbop_stxr_rms_021.wav
